<svg width="458" height="216" viewBox="0 0 458 216" fill="none" xmlns="http://www.w3.org/2000/svg">
<path d="M203.535 100.232C201.883 100.232 200.478 101.258 199.899 102.799H175.272V98.6912H184.528L193.867 89.0215C194.362 89.1926 194.858 89.3638 195.436 89.3638C197.585 89.3638 199.403 87.4812 199.403 85.2563C199.403 83.0314 197.585 81.1488 195.436 81.1488C193.288 81.1488 191.47 83.0314 191.47 85.2563C191.47 85.8553 191.552 86.3688 191.8 86.8822L183.289 95.6106H175.272V87.3101L183.784 78.4961C184.28 78.6672 184.776 78.8384 185.354 78.8384C187.503 78.8384 189.321 76.9558 189.321 74.7309C189.321 72.506 187.503 70.6234 185.354 70.6234C183.206 70.6234 181.388 72.506 181.388 74.7309C181.388 75.3299 181.47 75.8433 181.718 76.3568L172.297 86.0265V95.6106H168.33V70.11C169.818 69.511 170.81 68.0562 170.81 66.3448C170.81 64.1199 168.992 62.2373 166.843 62.2373C164.694 62.2373 162.876 64.1199 162.876 66.3448C162.876 68.0562 163.868 69.511 165.356 70.11V95.6106H161.389V86.0265L152.05 76.3568C152.216 75.8433 152.38 75.3299 152.38 74.7309C152.38 72.506 150.562 70.6234 148.414 70.6234C146.266 70.6234 144.448 72.506 144.448 74.7309C144.448 76.9558 146.266 78.8384 148.414 78.8384C148.992 78.8384 149.488 78.7528 149.984 78.4961L158.496 87.3101V95.6106H150.48L141.886 86.7966C142.051 86.2832 142.216 85.7697 142.216 85.1707C142.216 82.9458 140.398 81.0633 138.25 81.0633C136.101 81.0633 134.283 82.9458 134.283 85.1707C134.283 87.3956 136.101 89.2782 138.25 89.2782C138.827 89.2782 139.324 89.1926 139.819 88.9359L149.157 98.6056H158.414V102.713H133.786C133.208 101.173 131.803 100.146 130.15 100.146C128.002 100.146 126.184 102.029 126.184 104.253C126.184 106.478 128.002 108.361 130.15 108.361C131.803 108.361 133.208 107.334 133.786 105.794H158.414V109.901H149.157L139.819 119.656C139.324 119.485 138.827 119.314 138.25 119.314C136.101 119.314 134.283 121.197 134.283 123.422C134.283 125.647 136.101 127.529 138.25 127.529C140.398 127.529 142.216 125.647 142.216 123.422C142.216 122.823 142.133 122.309 141.886 121.796L150.397 112.982H158.414V121.282L149.902 130.182C149.406 130.011 148.91 129.84 148.331 129.84C146.182 129.84 144.364 131.722 144.364 133.947C144.364 136.172 146.182 138.055 148.331 138.055C150.48 138.055 152.298 136.172 152.298 133.947C152.298 133.348 152.216 132.835 151.967 132.321L161.306 122.652V113.067H165.273V138.568C163.785 139.167 162.794 140.622 162.794 142.333C162.794 144.558 164.612 146.441 166.761 146.441C168.909 146.441 170.726 144.558 170.726 142.333C170.726 140.622 169.736 139.167 168.248 138.568V113.067H172.215V122.652L181.553 132.321C181.388 132.835 181.222 133.348 181.222 133.947C181.222 136.172 183.04 138.055 185.189 138.055C187.338 138.055 189.156 136.172 189.156 133.947C189.156 131.722 187.338 129.84 185.189 129.84C184.61 129.84 184.115 129.925 183.619 130.182L175.272 121.368V113.067H183.289L191.8 121.881C191.635 122.395 191.47 122.908 191.47 123.507C191.47 125.732 193.288 127.615 195.436 127.615C197.585 127.615 199.403 125.732 199.403 123.507C199.403 121.282 197.585 119.4 195.436 119.4C194.858 119.4 194.362 119.485 193.867 119.742L184.528 109.987H175.272V105.879H199.899C200.478 107.42 201.883 108.446 203.535 108.446C205.684 108.446 207.502 106.564 207.502 104.339C207.502 102.114 205.684 100.232 203.535 100.232ZM195.436 84.2294C196.015 84.2294 196.428 84.6573 196.428 85.2563C196.428 85.8553 196.015 86.2832 195.436 86.2832C194.858 86.2832 194.444 85.8553 194.444 85.2563C194.444 84.6573 194.858 84.2294 195.436 84.2294ZM185.271 73.704C185.85 73.704 186.263 74.1319 186.263 74.7309C186.263 75.3299 185.85 75.7578 185.271 75.7578C184.694 75.7578 184.28 75.3299 184.28 74.7309C184.28 74.2174 184.776 73.704 185.271 73.704ZM147.423 74.7309C147.423 74.1319 147.836 73.704 148.414 73.704C148.992 73.704 149.406 74.1319 149.406 74.7309C149.406 75.3299 148.992 75.7578 148.414 75.7578C147.836 75.7578 147.423 75.3299 147.423 74.7309ZM137.258 85.2563C137.258 84.6573 137.671 84.2294 138.25 84.2294C138.827 84.2294 139.241 84.6573 139.241 85.2563C139.241 85.8553 138.827 86.2832 138.25 86.2832C137.753 86.2832 137.258 85.7697 137.258 85.2563ZM138.25 124.449C137.671 124.449 137.258 124.021 137.258 123.422C137.258 122.823 137.671 122.395 138.25 122.395C138.827 122.395 139.241 122.823 139.241 123.422C139.241 124.021 138.827 124.449 138.25 124.449ZM148.414 134.974C147.836 134.974 147.423 134.546 147.423 133.947C147.423 133.348 147.836 132.92 148.414 132.92C148.992 132.92 149.406 133.348 149.406 133.947C149.406 134.546 148.91 134.974 148.414 134.974ZM186.263 133.947C186.263 134.546 185.85 134.974 185.271 134.974C184.694 134.974 184.28 134.546 184.28 133.947C184.28 133.348 184.694 132.92 185.271 132.92C185.85 132.92 186.263 133.348 186.263 133.947ZM196.428 123.422C196.428 124.021 196.015 124.449 195.436 124.449C194.858 124.449 194.444 124.021 194.444 123.422C194.444 122.823 194.858 122.395 195.436 122.395C196.015 122.395 196.428 122.908 196.428 123.422ZM166.843 65.3179C167.421 65.3179 167.835 65.7458 167.835 66.3448C167.835 66.9438 167.421 67.3716 166.843 67.3716C166.264 67.3716 165.851 66.9438 165.851 66.3448C165.851 65.7458 166.264 65.3179 166.843 65.3179ZM130.15 105.366C129.572 105.366 129.159 104.938 129.159 104.339C129.159 103.74 129.572 103.312 130.15 103.312C130.729 103.312 131.142 103.74 131.142 104.339C131.142 104.938 130.729 105.366 130.15 105.366ZM166.843 143.36C166.264 143.36 165.851 142.932 165.851 142.333C165.851 141.734 166.264 141.306 166.843 141.306C167.421 141.306 167.835 141.734 167.835 142.333C167.835 142.932 167.421 143.36 166.843 143.36ZM203.535 105.366C202.957 105.366 202.543 104.938 202.543 104.339C202.543 103.74 202.957 103.312 203.535 103.312C204.114 103.312 204.527 103.74 204.527 104.339C204.527 104.938 204.114 105.366 203.535 105.366Z" fill="url(#paint0_linear_15_27)"/>
<path d="M245.83 102.123C245.551 99.6043 244.421 97.6488 242.437 96.2568C240.455 94.8647 238.023 94.1687 235.142 94.1687C233.035 94.1687 231.192 94.5333 229.612 95.2625C228.048 95.9916 226.824 96.9942 225.941 98.2703C225.073 99.5463 224.64 100.996 224.64 102.62C224.64 103.979 224.942 105.148 225.546 106.125C226.166 107.087 226.956 107.89 227.916 108.537C228.877 109.166 229.883 109.688 230.937 110.103C231.99 110.5 232.957 110.824 233.841 111.072L238.673 112.464C239.913 112.812 241.291 113.293 242.809 113.906C244.343 114.519 245.807 115.356 247.2 116.417C248.61 117.461 249.772 118.803 250.686 120.444C251.6 122.084 252.057 124.098 252.057 126.484C252.057 129.235 251.383 131.721 250.035 133.941C248.703 136.162 246.752 137.927 244.18 139.236C241.624 140.545 238.519 141.2 234.863 141.2C231.455 141.2 228.505 140.612 226.011 139.435C223.532 138.258 221.58 136.618 220.156 134.513C218.746 132.409 217.948 129.964 217.762 127.18H223.711C223.866 129.102 224.47 130.693 225.523 131.953C226.591 133.196 227.939 134.124 229.565 134.737C231.208 135.333 232.973 135.632 234.863 135.632C237.063 135.632 239.038 135.251 240.788 134.488C242.538 133.709 243.924 132.632 244.947 131.257C245.969 129.865 246.481 128.241 246.481 126.385C246.481 124.694 246.039 123.319 245.156 122.258C244.273 121.198 243.111 120.336 241.671 119.673C240.23 119.01 238.673 118.43 237.001 117.933L231.145 116.143C227.428 115 224.485 113.367 222.316 111.246C220.148 109.125 219.063 106.349 219.063 102.919C219.063 100.068 219.784 97.5825 221.224 95.4613C222.681 93.3235 224.632 91.6664 227.079 90.4897C229.542 89.2966 232.292 88.7 235.328 88.7C238.395 88.7 241.121 89.2883 243.506 90.4649C245.892 91.6249 247.782 93.2158 249.175 95.2376C250.585 97.2594 251.329 99.5546 251.406 102.123H245.83ZM299.821 105.305H294.059C293.718 103.532 293.122 101.974 292.27 100.632C291.434 99.2895 290.411 98.1626 289.203 97.2511C288.01 96.3231 286.686 95.6271 285.23 95.163C283.774 94.699 282.256 94.467 280.675 94.467C277.795 94.467 275.185 95.2459 272.846 96.8037C270.522 98.3614 268.671 100.657 267.293 103.689C265.93 106.722 265.248 110.442 265.248 114.851C265.248 119.259 265.93 122.979 267.293 126.012C268.671 129.044 270.522 131.34 272.846 132.897C275.185 134.455 277.795 135.234 280.675 135.234C282.256 135.234 283.774 135.002 285.23 134.538C286.686 134.074 288.01 133.386 289.203 132.475C290.411 131.547 291.434 130.412 292.27 129.069C293.122 127.71 293.718 126.153 294.059 124.396H299.821C299.387 126.998 298.597 129.326 297.451 131.381C296.305 133.436 294.88 135.184 293.176 136.626C291.472 138.051 289.559 139.137 287.437 139.882C285.33 140.628 283.077 141.001 280.675 141.001C276.618 141.001 273.008 139.941 269.849 137.819C266.689 135.698 264.202 132.682 262.39 128.771C260.578 124.86 259.672 120.22 259.672 114.851C259.672 109.481 260.578 104.841 262.39 100.93C264.202 97.0191 266.689 94.003 269.849 91.8818C273.008 89.7606 276.618 88.7 280.675 88.7C283.077 88.7 285.33 89.0728 287.437 89.8186C289.559 90.5643 291.472 91.6581 293.176 93.0998C294.88 94.525 296.305 96.2651 297.451 98.32C298.597 100.358 299.387 102.687 299.821 105.305ZM306.53 94.8647V89.396H342.219V94.8647H327.255V140.305H321.494V94.8647H306.53ZM356.874 89.396V140.305H351.111V89.396H356.874Z" fill="#214CCE"/>
<defs>
<linearGradient id="paint0_linear_15_27" x1="126.184" y1="62.2373" x2="207.502" y2="62.2373" gradientUnits="userSpaceOnUse">
<stop stop-color="#FBB040"/>
<stop offset="1" stop-color="#F9ED32"/>
</linearGradient>
</defs>
</svg>
