<svg width="490" height="216" viewBox="0 0 490 216" fill="none" xmlns="http://www.w3.org/2000/svg">
<path d="M0 0H490V216H0V0Z" fill="white"/>
<path d="M217.756 100.232C215.988 100.232 214.485 101.258 213.866 102.799H187.518V98.6912H197.421L207.412 89.0215C207.942 89.1926 208.473 89.3638 209.091 89.3638C211.39 89.3638 213.335 87.4812 213.335 85.2563C213.335 83.0314 211.39 81.1488 209.091 81.1488C206.793 81.1488 204.848 83.0314 204.848 85.2563C204.848 85.8553 204.936 86.3688 205.201 86.8822L196.095 95.6106H187.518V87.3101L196.625 78.4961C197.155 78.6672 197.686 78.8384 198.305 78.8384C200.604 78.8384 202.549 76.9558 202.549 74.7309C202.549 72.506 200.604 70.6234 198.305 70.6234C196.006 70.6234 194.061 72.506 194.061 74.7309C194.061 75.3299 194.149 75.8433 194.415 76.3568L184.335 86.0265V95.6106H180.091V70.11C181.683 69.511 182.744 68.0562 182.744 66.3448C182.744 64.1199 180.799 62.2373 178.5 62.2373C176.201 62.2373 174.256 64.1199 174.256 66.3448C174.256 68.0562 175.317 69.511 176.909 70.11V95.6106H172.665V86.0265L162.674 76.3568C162.851 75.8433 163.027 75.3299 163.027 74.7309C163.027 72.506 161.082 70.6234 158.784 70.6234C156.485 70.6234 154.54 72.506 154.54 74.7309C154.54 76.9558 156.485 78.8384 158.784 78.8384C159.402 78.8384 159.933 78.7528 160.463 78.4961L169.57 87.3101V95.6106H160.994L151.799 86.7966C151.976 86.2832 152.152 85.7697 152.152 85.1707C152.152 82.9458 150.207 81.0633 147.909 81.0633C145.61 81.0633 143.665 82.9458 143.665 85.1707C143.665 87.3956 145.61 89.2782 147.909 89.2782C148.527 89.2782 149.058 89.1926 149.588 88.9359L159.579 98.6056H169.482V102.713H143.134C142.515 101.173 141.012 100.146 139.244 100.146C136.945 100.146 135 102.029 135 104.253C135 106.478 136.945 108.361 139.244 108.361C141.012 108.361 142.515 107.334 143.134 105.794H169.482V109.901H159.579L149.588 119.656C149.058 119.485 148.527 119.314 147.909 119.314C145.61 119.314 143.665 121.197 143.665 123.422C143.665 125.647 145.61 127.529 147.909 127.529C150.207 127.529 152.152 125.647 152.152 123.422C152.152 122.823 152.064 122.309 151.799 121.796L160.905 112.982H169.482V121.282L160.375 130.182C159.845 130.011 159.314 129.84 158.695 129.84C156.396 129.84 154.451 131.722 154.451 133.947C154.451 136.172 156.396 138.055 158.695 138.055C160.994 138.055 162.939 136.172 162.939 133.947C162.939 133.348 162.851 132.835 162.585 132.321L172.576 122.652V113.067H176.82V138.568C175.229 139.167 174.168 140.622 174.168 142.333C174.168 144.558 176.113 146.441 178.412 146.441C180.71 146.441 182.655 144.558 182.655 142.333C182.655 140.622 181.595 139.167 180.003 138.568V113.067H184.247V122.652L194.238 132.321C194.061 132.835 193.884 133.348 193.884 133.947C193.884 136.172 195.829 138.055 198.128 138.055C200.427 138.055 202.372 136.172 202.372 133.947C202.372 131.722 200.427 129.84 198.128 129.84C197.509 129.84 196.979 129.925 196.448 130.182L187.518 121.368V113.067H196.095L205.201 121.881C205.024 122.395 204.848 122.908 204.848 123.507C204.848 125.732 206.793 127.615 209.091 127.615C211.39 127.615 213.335 125.732 213.335 123.507C213.335 121.282 211.39 119.4 209.091 119.4C208.473 119.4 207.942 119.485 207.412 119.742L197.421 109.987H187.518V105.879H213.866C214.485 107.42 215.988 108.446 217.756 108.446C220.055 108.446 222 106.564 222 104.339C222 102.114 220.055 100.232 217.756 100.232ZM209.091 84.2294C209.71 84.2294 210.152 84.6573 210.152 85.2563C210.152 85.8553 209.71 86.2832 209.091 86.2832C208.473 86.2832 208.03 85.8553 208.03 85.2563C208.03 84.6573 208.473 84.2294 209.091 84.2294ZM198.216 73.704C198.835 73.704 199.277 74.1319 199.277 74.7309C199.277 75.3299 198.835 75.7578 198.216 75.7578C197.598 75.7578 197.155 75.3299 197.155 74.7309C197.155 74.2174 197.686 73.704 198.216 73.704ZM157.723 74.7309C157.723 74.1319 158.165 73.704 158.784 73.704C159.402 73.704 159.845 74.1319 159.845 74.7309C159.845 75.3299 159.402 75.7578 158.784 75.7578C158.165 75.7578 157.723 75.3299 157.723 74.7309ZM146.848 85.2563C146.848 84.6573 147.29 84.2294 147.909 84.2294C148.527 84.2294 148.97 84.6573 148.97 85.2563C148.97 85.8553 148.527 86.2832 147.909 86.2832C147.378 86.2832 146.848 85.7697 146.848 85.2563ZM147.909 124.449C147.29 124.449 146.848 124.021 146.848 123.422C146.848 122.823 147.29 122.395 147.909 122.395C148.527 122.395 148.97 122.823 148.97 123.422C148.97 124.021 148.527 124.449 147.909 124.449ZM158.784 134.974C158.165 134.974 157.723 134.546 157.723 133.947C157.723 133.348 158.165 132.92 158.784 132.92C159.402 132.92 159.845 133.348 159.845 133.947C159.845 134.546 159.314 134.974 158.784 134.974ZM199.277 133.947C199.277 134.546 198.835 134.974 198.216 134.974C197.598 134.974 197.155 134.546 197.155 133.947C197.155 133.348 197.598 132.92 198.216 132.92C198.835 132.92 199.277 133.348 199.277 133.947ZM210.152 123.422C210.152 124.021 209.71 124.449 209.091 124.449C208.473 124.449 208.03 124.021 208.03 123.422C208.03 122.823 208.473 122.395 209.091 122.395C209.71 122.395 210.152 122.908 210.152 123.422ZM178.5 65.3179C179.119 65.3179 179.561 65.7458 179.561 66.3448C179.561 66.9438 179.119 67.3716 178.5 67.3716C177.881 67.3716 177.439 66.9438 177.439 66.3448C177.439 65.7458 177.881 65.3179 178.5 65.3179ZM139.244 105.366C138.625 105.366 138.183 104.938 138.183 104.339C138.183 103.74 138.625 103.312 139.244 103.312C139.863 103.312 140.305 103.74 140.305 104.339C140.305 104.938 139.863 105.366 139.244 105.366ZM178.5 143.36C177.881 143.36 177.439 142.932 177.439 142.333C177.439 141.734 177.881 141.306 178.5 141.306C179.119 141.306 179.561 141.734 179.561 142.333C179.561 142.932 179.119 143.36 178.5 143.36ZM217.756 105.366C217.137 105.366 216.695 104.938 216.695 104.339C216.695 103.74 217.137 103.312 217.756 103.312C218.375 103.312 218.817 103.74 218.817 104.339C218.817 104.938 218.375 105.366 217.756 105.366Z" fill="url(#paint0_linear_9_11)"/>
<path d="M263.006 102.123C262.707 99.6043 261.498 97.6488 259.376 96.2568C257.255 94.8647 254.653 94.1687 251.571 94.1687C249.317 94.1687 247.345 94.5333 245.655 95.2625C243.981 95.9916 242.672 96.9942 241.727 98.2703C240.799 99.5463 240.335 100.996 240.335 102.62C240.335 103.979 240.658 105.148 241.305 106.125C241.968 107.087 242.813 107.89 243.84 108.537C244.868 109.166 245.945 109.688 247.072 110.103C248.199 110.5 249.234 110.824 250.179 111.072L255.349 112.464C256.675 112.812 258.15 113.293 259.774 113.906C261.415 114.519 262.981 115.356 264.472 116.417C265.98 117.461 267.223 118.803 268.201 120.444C269.179 122.084 269.668 124.098 269.668 126.484C269.668 129.235 268.947 131.721 267.505 133.941C266.08 136.162 263.992 137.927 261.241 139.236C258.506 140.545 255.184 141.2 251.273 141.2C247.627 141.2 244.47 140.612 241.802 139.435C239.15 138.258 237.062 136.618 235.538 134.513C234.03 132.409 233.176 129.964 232.977 127.18H239.341C239.507 129.102 240.153 130.693 241.28 131.953C242.423 133.196 243.865 134.124 245.605 134.737C247.362 135.333 249.251 135.632 251.273 135.632C253.626 135.632 255.739 135.251 257.612 134.488C259.484 133.709 260.967 132.632 262.061 131.257C263.155 129.865 263.702 128.241 263.702 126.385C263.702 124.694 263.229 123.319 262.285 122.258C261.34 121.198 260.097 120.336 258.556 119.673C257.015 119.01 255.349 118.43 253.56 117.933L247.295 116.143C243.318 115 240.17 113.367 237.849 111.246C235.529 109.125 234.369 106.349 234.369 102.919C234.369 100.068 235.14 97.5825 236.681 95.4613C238.239 93.3235 240.327 91.6664 242.945 90.4897C245.58 89.2966 248.522 88.7 251.77 88.7C255.051 88.7 257.968 89.2883 260.52 90.4649C263.072 91.6249 265.094 93.2158 266.585 95.2376C268.093 97.2594 268.889 99.5546 268.972 102.123H263.006ZM320.769 105.305H314.605C314.24 103.532 313.602 101.974 312.691 100.632C311.796 99.2895 310.702 98.1626 309.409 97.2511C308.133 96.3231 306.716 95.6271 305.159 95.163C303.601 94.699 301.977 94.467 300.286 94.467C297.204 94.467 294.412 95.2459 291.909 96.8037C289.423 98.3614 287.443 100.657 285.968 103.689C284.51 106.722 283.781 110.442 283.781 114.851C283.781 119.259 284.51 122.979 285.968 126.012C287.443 129.044 289.423 131.34 291.909 132.897C294.412 134.455 297.204 135.234 300.286 135.234C301.977 135.234 303.601 135.002 305.159 134.538C306.716 134.074 308.133 133.386 309.409 132.475C310.702 131.547 311.796 130.412 312.691 129.069C313.602 127.71 314.24 126.153 314.605 124.396H320.769C320.305 126.998 319.46 129.326 318.234 131.381C317.008 133.436 315.483 135.184 313.66 136.626C311.837 138.051 309.79 139.137 307.52 139.882C305.266 140.628 302.855 141.001 300.286 141.001C295.945 141.001 292.083 139.941 288.703 137.819C285.322 135.698 282.662 132.682 280.723 128.771C278.784 124.86 277.815 120.22 277.815 114.851C277.815 109.481 278.784 104.841 280.723 100.93C282.662 97.0191 285.322 94.003 288.703 91.8818C292.083 89.7606 295.945 88.7 300.286 88.7C302.855 88.7 305.266 89.0728 307.52 89.8186C309.79 90.5643 311.837 91.6581 313.66 93.0998C315.483 94.525 317.008 96.2651 318.234 98.32C319.46 100.358 320.305 102.687 320.769 105.305ZM327.947 94.8647V89.396H366.129V94.8647H350.12V140.305H343.956V94.8647H327.947ZM381.808 89.396V140.305H375.643V89.396H381.808Z" fill="#214CCE"/>
<defs>
<linearGradient id="paint0_linear_9_11" x1="135" y1="62.2373" x2="222" y2="62.2373" gradientUnits="userSpaceOnUse">
<stop stop-color="#FBB040"/>
<stop offset="1" stop-color="#F9ED32"/>
</linearGradient>
</defs>
</svg>
